<svg width="133" height="133" viewBox="0 0 133 133" fill="none" xmlns="http://www.w3.org/2000/svg">
<circle cx="66.5" cy="66.5" r="64" fill="#266AD8" stroke="white" stroke-width="5"/>
<path d="M72.2523 68.55C76.9523 68.55 80.3857 67.4167 82.5523 65.15C84.7523 62.8833 85.8523 59.7833 85.8523 55.85C85.8523 54.05 85.569 52.4167 85.0023 50.95C84.469 49.45 83.6357 48.1833 82.5023 47.15C81.4023 46.0833 80.0023 45.2667 78.3023 44.7C76.6023 44.1333 74.5857 43.85 72.2523 43.85H62.7523V68.55H72.2523ZM72.2523 32.45C77.219 32.45 81.5023 33.0333 85.1023 34.2C88.7357 35.3667 91.719 37 94.0523 39.1C96.3857 41.1667 98.1023 43.6333 99.2023 46.5C100.336 49.3667 100.902 52.4833 100.902 55.85C100.902 59.4167 100.319 62.6833 99.1523 65.65C97.9857 68.6167 96.219 71.1667 93.8523 73.3C91.4857 75.4333 88.5023 77.1 84.9023 78.3C81.3023 79.4667 77.0857 80.05 72.2523 80.05H62.7523V105H47.7523V32.45H72.2523Z" fill="white"/>
</svg>
